<svg xmlns="http://www.w3.org/2000/svg" viewBox="0 0 1440 320"><path fill="#0099ff" fill-opacity="1" d="M0,64L34.3,74.7C68.6,85,137,107,206,144C274.3,181,343,235,411,261.3C480,288,549,288,617,277.3C685.7,267,754,245,823,213.3C891.4,181,960,139,1029,128C1097.1,117,1166,139,1234,154.7C1302.9,171,1371,181,1406,186.7L1440,192L1440,320L1405.7,320C1371.4,320,1303,320,1234,320C1165.7,320,1097,320,1029,320C960,320,891,320,823,320C754.3,320,686,320,617,320C548.6,320,480,320,411,320C342.9,320,274,320,206,320C137.1,320,69,320,34,320L0,320Z"></path></svg>