<svg xmlns="http://www.w3.org/2000/svg" viewBox="0 0 1440 320"><path fill="#0099ff" fill-opacity="1" d="M0,288L30,266.7C60,245,120,203,180,186.7C240,171,300,181,360,197.3C420,213,480,235,540,208C600,181,660,107,720,96C780,85,840,139,900,181.3C960,224,1020,256,1080,224C1140,192,1200,96,1260,53.3C1320,11,1380,21,1410,26.7L1440,32L1440,0L1410,0C1380,0,1320,0,1260,0C1200,0,1140,0,1080,0C1020,0,960,0,900,0C840,0,780,0,720,0C660,0,600,0,540,0C480,0,420,0,360,0C300,0,240,0,180,0C120,0,60,0,30,0L0,0Z"></path></svg>